HIERARCHY
ROOT RootJoint
{
    OFFSET   0.000000   0.000000   0.000000
    CHANNELS 6 Xposition Yposition Zposition Xrotation Yrotation Zrotation
    JOINT pelvis_lowerback
    {
        OFFSET   0.000000   0.093605   0.000000
        CHANNELS 3 Xrotation Yrotation Zrotation
        JOINT lowerback_torso
        {
            OFFSET   0.000000   0.100000   0.000000
            CHANNELS 3 Xrotation Yrotation Zrotation
            JOINT torso_head
            {
                OFFSET   0.000000   0.282350   0.000000
                CHANNELS 3 Xrotation Yrotation Zrotation
                End Site
                {
                    OFFSET   0.000000   0.192650   0.000000
                }
            }
            JOINT rTorso_Clavicle
            {
                OFFSET  -0.001000   0.157500   0.000000
                CHANNELS 3 Xrotation Yrotation Zrotation
                JOINT rShoulder
                {
                    OFFSET  -0.117647   0.000000   0.000000
                    CHANNELS 3 Xrotation Yrotation Zrotation
                    JOINT rElbow
                    {
                        OFFSET  -0.245000   0.000000   0.000000
                        CHANNELS 3 Xrotation Yrotation Zrotation
                        JOINT rWrist
                        {
                            OFFSET  -0.240000   0.000000   0.000000
                            CHANNELS 3 Xrotation Yrotation Zrotation
                            End Site
                            {
                                OFFSET  -0.116353  -0.002500   0.000000
                            }
                        }
                    }
                }
            }
            JOINT lTorso_Clavicle
            {
                OFFSET   0.001000   0.157500   0.000000
                CHANNELS 3 Xrotation Yrotation Zrotation
                JOINT lShoulder
                {
                    OFFSET   0.117647   0.000000   0.000000
                    CHANNELS 3 Xrotation Yrotation Zrotation
                    JOINT lElbow
                    {
                        OFFSET   0.245000   0.000000   0.000000
                        CHANNELS 3 Xrotation Yrotation Zrotation
                        JOINT lWrist
                        {
                            OFFSET   0.240000   0.000000   0.000000
                            CHANNELS 3 Xrotation Yrotation Zrotation
                            End Site
                            {
                                OFFSET   0.116353  -0.002500   0.000000
                            }
                        }
                    }
                }
            }
        }
    }
    JOINT rHip
    {
        OFFSET  -0.100000  -0.051395   0.000000
        CHANNELS 3 Xrotation Yrotation Zrotation
        JOINT rKnee
        {
            OFFSET   0.000000  -0.410000   0.000000
            CHANNELS 3 Xrotation Yrotation Zrotation
            JOINT rAnkle
            {
                OFFSET   0.000000  -0.390000   0.000000
                CHANNELS 3 Xrotation Yrotation Zrotation
                JOINT rToeJoint
                {
                    OFFSET   0.000000  -0.050000   0.130000
                    CHANNELS 3 Xrotation Yrotation Zrotation
                    End Site
                    {
                        OFFSET  -0.010000   0.002000   0.060000
                    }
                }
            }
        }
    }
    JOINT lHip
    {
        OFFSET   0.100000  -0.051395   0.000000
        CHANNELS 3 Xrotation Yrotation Zrotation
        JOINT lKnee
        {
            OFFSET   0.000000  -0.410000   0.000000
            CHANNELS 3 Xrotation Yrotation Zrotation
            JOINT lAnkle
            {
                OFFSET   0.000000  -0.390000   0.000000
                CHANNELS 3 Xrotation Yrotation Zrotation
                JOINT lToeJoint
                {
                    OFFSET   0.000000  -0.050000   0.130000
                    CHANNELS 3 Xrotation Yrotation Zrotation
                    End Site
                    {
                        OFFSET   0.010000   0.002000   0.060000
                    }
                }
            }
        }
    }
}
MOTION
Frames: 8
Frame Time:   0.008333
 -2.264510   0.866901   3.231513  -8.840981  -4.051187   6.148473  16.794762   0.887791   0.301678   8.800598  -0.120476   0.087452   2.580442  -5.429708  -0.683346   4.110058  -8.059263  -0.128873  12.699413  -3.719643  49.142150  -0.052609  81.744938   0.038006   0.478259   6.555732  -2.299815   6.526915  12.554565   0.002502  19.748475   2.434297 -57.329508   0.119465 -75.404974   0.093993  -0.241313  -5.758771   4.953415 -17.160637   0.928587  -3.691825  56.841931   0.001456  -0.002080 -13.264543  -7.080185  -2.339782 -27.736732  -0.029314  -0.064848 -14.113767   3.788780  12.611421  75.815206   0.021010   0.056277   1.548958  -4.412857  -9.500752  -1.310599   0.014264   0.028113
 -2.264227   0.868823   3.219660  -9.120125  -3.584264   5.820043  16.684350   0.383153   0.367228   8.881906  -0.612597   0.316573   2.713758  -5.243829  -0.548557   4.467889  -8.244198   0.202286  13.887395  -3.675161  49.914406  -0.032783  82.117069   0.024649   0.478913   5.928812  -2.123410   6.296327  12.141226  -0.378027  18.962751   1.733709 -57.105542   0.179191 -77.404967   0.161239  -0.217894  -5.646161   4.890645 -17.731744   1.055725  -3.370135  56.481339  -0.000233  -0.003186 -11.206964  -6.694532  -1.515400 -28.835800  -0.014506  -0.058937 -12.166007   3.712564  12.315738  76.086188   0.017293   0.044194   1.803004  -5.008956  -9.796761  -1.021190   0.013128   0.021135
 -2.263822   0.872143   3.207402  -9.286249  -3.132787   5.459056  16.530899  -0.142076   0.414943   8.946745  -1.118481   0.568224   2.846925  -5.064181  -0.414241   4.827264  -8.445179   0.493983  15.023308  -3.600773  50.667616  -0.017510  82.529181   0.014894   0.493115   5.625089  -1.792913   6.070827  11.734278  -0.651232  18.219808   1.056774 -56.881104   0.249968 -79.325363   0.239813  -0.173747  -5.780725   4.717377 -18.283678   1.167349  -3.041204  55.692664  -0.003235  -0.005668  -8.681616  -6.216222  -0.735647 -30.214449  -0.001052  -0.056366 -10.345550   3.631759  11.870463  76.037518   0.013574   0.035660   2.026644  -5.568217 -10.074021  -0.751766   0.012096   0.015095
 -2.263304   0.876313   3.194785  -9.365867  -2.751939   5.089480  16.360640  -0.663121   0.418692   8.993169  -1.622927   0.810702   2.967406  -4.895936  -0.289071   5.173862  -8.652840   0.742097  16.093549  -3.520680  51.370502  -0.008662  82.932298   0.010190   0.512572   5.462546  -1.421436   5.856662  11.352027  -0.824389  17.523085   0.431778 -56.640055   0.334912 -81.136555   0.332255  -0.117787  -6.034500   4.583526 -18.799664   1.271748  -2.722292  54.560270  -0.006548  -0.008419  -5.905893  -5.710229  -0.025655 -31.658462   0.009271  -0.053781  -8.677385   3.584728  11.322737  75.926843   0.010467   0.029275   2.227849  -6.092103 -10.334161  -0.516831   0.011043   0.010215
 -2.262518   0.881010   3.181883  -9.377624  -2.506837   4.738727  16.180188  -1.154961   0.375175   9.028420  -2.106535   1.015579   3.076011  -4.738653  -0.177853   5.502450  -8.863255   0.937009  17.095550  -3.444440  52.011049  -0.005673  83.318002   0.010166   0.533933   5.365706  -1.072647   5.661097  11.004092  -0.925390  16.877614  -0.138708 -56.390386   0.443778 -82.835369   0.447821  -0.056075  -6.333519   4.513746 -19.278650   1.313451  -2.410822  53.252337  -0.008116  -0.009787  -3.123620  -5.371388   0.229291 -33.082249   0.011866  -0.049796  -7.128769   3.584954  10.663782  75.822518   0.008063   0.024243   2.411369  -6.583636 -10.578390  -0.306617   0.009946   0.006288
 -2.261550   0.885875   3.168742  -9.336410  -2.333330   4.398388  15.985842  -1.638796   0.295928   9.052756  -2.579729   1.196095   3.174021  -4.592647  -0.076060   5.818027  -9.082973   1.083130  18.037543  -3.378087  52.594386  -0.007318  83.685055   0.013823   0.555483   5.310611  -0.766139   5.484685  10.690064  -0.960333  16.281790  -0.657504 -56.132757   0.593987 -84.427441   0.603606   0.008843  -6.653609   4.501383 -19.694883   1.412070  -2.145843  51.704493  -0.010174  -0.010864  -0.341575  -5.033934   0.487173 -34.314876   0.012880  -0.045120  -5.713345   3.592943   9.952546  75.753063   0.006253   0.019986   2.580282  -7.044506 -10.806762  -0.118204   0.008881   0.003262
 -2.260526   0.890639   3.155417  -9.260185  -2.171736   4.070463  15.779440  -2.125345   0.180080   9.068384  -3.051684   1.358641   3.262597  -4.457614   0.018470   6.125990  -9.315587   1.194177  18.928108  -3.323853  53.130137  -0.012135  84.031631   0.019873   0.576354   5.279231  -0.502002   5.323708  10.405221  -0.937375  15.730168  -1.129228 -55.867149   0.824205 -85.918192   0.837958   0.075779  -6.982565   4.539503 -20.041738   1.573111  -1.901240  50.017729  -0.012729  -0.012533   2.396465  -4.610210   0.740566 -35.429268   0.013584  -0.041861  -4.425938   3.591072   9.235812  75.715835   0.004883   0.016311   2.736389  -7.476013 -11.019842   0.050484   0.007910   0.001048
 -2.258787   0.896472   3.141136  -8.904801  -2.342340   4.002999  15.546395  -2.489818  -0.096695   8.989099  -3.366312   1.304534   3.405936  -4.184475   0.084842   6.323649  -9.518841   1.285766  19.833932  -3.053854  53.889985  -0.009739  84.633705   0.021127   0.565194   4.955470  -0.541280   5.201416  10.019927  -0.745535  15.329711  -1.704544 -55.698589   1.289582 -87.254727   1.306734   0.135977  -7.181147   4.617815 -20.613497   1.788093  -2.041335  47.989510  -0.013861  -0.007142   5.202446  -3.987070   1.889503 -36.281455   0.018655  -0.031857  -3.181070   3.540187   7.807165  74.059944   0.004675   0.034837   2.292118  -7.865143 -10.910870   0.371102   0.005327  -0.004653
